<svg xmlns="http://www.w3.org/2000/svg" width="1100" height="620" viewBox="0 0 1100 620" role="img">
<style>
.bg{fill:#fff} .title{font:700 34px Arial,'Noto Sans SC',sans-serif;fill:#212529} .label{font:600 22px Arial,'Noto Sans SC',sans-serif;fill:#212529} .small{font:18px Arial,'Noto Sans SC',sans-serif;fill:#495057} .tiny{font:15px Arial,'Noto Sans SC',sans-serif;fill:#6c757d} .box{fill:#f8f9fa;stroke:#495057;stroke-width:2;rx:8} .accent{fill:#e9ecef;stroke:#343a40;stroke-width:2;rx:8} .line{stroke:#495057;stroke-width:3;fill:none} .thin{stroke:#adb5bd;stroke-width:2;fill:none} .dash{stroke:#adb5bd;stroke-width:2;stroke-dasharray:8 7;fill:none} .dot{fill:#495057} .pale{fill:#f1f3f5;stroke:#adb5bd;stroke-width:2} .arrow{marker-end:url(#arrow)}
</style>
<defs><marker id="arrow" markerWidth="12" markerHeight="12" refX="10" refY="6" orient="auto"><path d="M2,2 L10,6 L2,10 z" fill="#495057"/></marker></defs>
<rect class="bg" width="100%" height="100%"/>

<text class="title" x="60" y="70">卷积：用小窗口扫描局部特征</text>
<rect class="box" x="95" y="130" width="360" height="360"/>
<g stroke="#adb5bd" stroke-width="1"><path d="M155 130 V490 M215 130 V490 M275 130 V490 M335 130 V490 M395 130 V490 M95 190 H455 M95 250 H455 M95 310 H455 M95 370 H455 M95 430 H455"/></g>
<rect x="215" y="250" width="120" height="120" fill="none" stroke="#212529" stroke-width="5"/>
<path class="line arrow" d="M335 310 C430 310, 505 300, 575 260"/>
<rect class="accent" x="610" y="145" width="360" height="95"/><text class="label" x="705" y="202">边缘</text>
<rect class="accent" x="610" y="270" width="360" height="95"/><text class="label" x="705" y="327">纹理</text>
<rect class="accent" x="610" y="395" width="360" height="95"/><text class="label" x="705" y="452">形状部件</text>
<text class="small" x="125" y="550">同一个小窗口在不同位置反复扫描，寻找局部模式。</text>

</svg>