<svg xmlns="http://www.w3.org/2000/svg" width="1100" height="620" viewBox="0 0 1100 620" role="img">
<style>
.bg{fill:#ffffff} .title{font:700 34px Arial,'Noto Sans SC',sans-serif;fill:#212529} .label{font:600 22px Arial,'Noto Sans SC',sans-serif;fill:#212529} .small{font:18px Arial,'Noto Sans SC',sans-serif;fill:#495057} .tiny{font:15px Arial,'Noto Sans SC',sans-serif;fill:#6c757d} .box{fill:#f8f9fa;stroke:#495057;stroke-width:2;rx:8} .dark{fill:#495057} .line{stroke:#495057;stroke-width:3;fill:none} .dash{stroke:#adb5bd;stroke-width:2;stroke-dasharray:8 7;fill:none} .accent{fill:#e9ecef;stroke:#343a40;stroke-width:2;rx:8} .arrow{marker-end:url(#arrow)}
</style>
<defs><marker id="arrow" markerWidth="12" markerHeight="12" refX="10" refY="6" orient="auto"><path d="M2,2 L10,6 L2,10 z" fill="#495057"/></marker></defs>
<rect class="bg" x="0" y="0" width="100%" height="100%"/>

<text class="title" x="60" y="70">自注意力：每个词都能看见其他词</text>
<rect class="box" x="95" y="160" width="900" height="120"/>
<text class="label" x="150" y="230">The</text><text class="label" x="300" y="230">cat</text><text class="label" x="450" y="230">sat</text><text class="label" x="600" y="230">on</text><text class="label" x="735" y="230">the mat</text>
<path class="line arrow" d="M475 260 C430 370, 340 370, 315 260"/><path class="line arrow" d="M480 260 C550 390, 750 390, 790 260"/><path class="dash" d="M480 260 C500 340, 600 340, 620 260"/>
<rect class="accent" x="240" y="420" width="630" height="95"/><text class="small" x="280" y="460">模型在处理“sat”时，同时关注“cat”和“mat”，</text><text class="small" x="280" y="492">从而理解动作、施动者和位置之间的关系。</text>

</svg>